<?xml version="1.0" encoding="UTF-8"?>
<svg width="176px" height="71px" viewBox="0 0 176 71" version="1.1" xmlns="http://www.w3.org/2000/svg" xmlns:xlink="http://www.w3.org/1999/xlink">
    <!-- Generator: Sketch 48.2 (47327) - http://www.bohemiancoding.com/sketch -->
    <title>logo</title>
    <desc>Created with Sketch.</desc>
    <defs></defs>
    <g id="logo" stroke="none" stroke-width="1" fill="none" fill-rule="evenodd">
        <g fill="#9B4E51">
            <path d="M27.0670844,2.95337805 C27.1203414,3.11253192 27.1743815,3.27168579 27.2284217,3.43006707 L27.3889759,3.43006707 L27.3889759,3.74837481 C27.4962731,3.80091104 27.6043535,3.85421986 27.7116506,3.90675609 L27.7116506,4.38421771 L27.8722048,4.38421771 L27.8722048,4.70175286 L28.0335422,4.70175286 L28.0335422,5.17844188 C28.4212218,6.04915262 28.873123,7.07051873 29,8.19850248 C27.3372853,7.82225037 27.7797883,5.87222915 26.4225181,5.49674962 C25.8077131,4.87481338 22.9921411,5.48747852 22.2340121,5.81428478 L22.2340121,5.97343865 L21.9113374,5.97343865 L21.9113374,6.13181993 L21.4281085,6.13181993 L21.4281085,6.2909738 C21.1062169,6.39681885 20.7835422,6.5026639 20.4608675,6.60850895 L20.4608675,6.76766282 L20.1389759,6.76766282 L20.1389759,6.92681669 C19.9243815,6.97935292 19.709004,7.03266174 19.4944096,7.08597056 C19.4411526,7.19181561 19.3871125,7.29766067 19.3330723,7.40350572 C19.0111807,7.50935077 18.6892892,7.61519582 18.3666145,7.72104087 C18.3133575,7.82765851 18.2593173,7.93350356 18.2060603,8.03934861 C17.9906827,8.09188484 17.7760884,8.14519366 17.561494,8.19850248 C17.5074538,8.30434753 17.4541968,8.41019258 17.4001566,8.51603763 C17.1855623,8.56934645 16.9701847,8.62188268 16.7555904,8.6751915 C16.7023334,8.78103656 16.6482932,8.88688161 16.594253,8.99272666 L16.2723615,8.99272666 L16.2723615,9.15188053 C16.1110241,9.20441676 15.9504699,9.25772558 15.7891325,9.3110344 C15.7350924,9.41687945 15.6818354,9.5227245 15.6277952,9.62856955 L15.3059036,9.62856955 L15.3059036,9.78772342 C15.1445663,9.84025965 14.9832289,9.89356847 14.8226747,9.9461047 C14.7686345,10.0519498 14.7153776,10.1585674 14.6613374,10.2644124 L14.3394458,10.2644124 C14.1781085,10.4761025 14.0167711,10.6885652 13.8554337,10.9002553 L13.5335422,10.9002553 C13.479502,11.0061004 13.426245,11.1119454 13.3722048,11.2177905 L13.0503133,11.2177905 L13.0503133,11.3769444 C12.7660149,11.6064041 12.6610673,11.7346543 12.2444096,11.8536334 L12.2444096,12.1719411 L11.9225181,12.1719411 L11.9225181,12.4894763 L11.5998434,12.4894763 C11.4815815,12.9012676 11.348439,13.0032497 11.1166145,13.284473 L10.9552771,13.284473 L10.9552771,13.6020082 C10.8479799,13.655317 10.7406827,13.7078532 10.6333855,13.7611621 C10.5260884,14.2903873 10.4187912,14.8203852 10.3107108,15.350383 L10.4720482,15.350383 C10.6506158,16.0627125 11.0453441,16.3122596 11.5998434,16.6212962 L11.9225181,16.6212962 C11.9757751,16.7279138 12.0298153,16.8337589 12.0838555,16.939604 L12.5663012,16.939604 C12.6203414,17.045449 12.6743815,17.1512941 12.7276385,17.2571391 L13.0503133,17.2571391 L13.3722048,17.5754468 L13.6948796,17.5754468 L14.0167711,17.892982 L14.3394458,17.892982 C14.3927028,17.998827 14.446743,18.1046721 14.5,18.2112897 L14.9832289,18.2112897 C15.0372691,18.3171348 15.0905261,18.4229798 15.1445663,18.5288249 L15.6277952,18.5288249 C15.6818354,18.6346699 15.7350924,18.740515 15.7891325,18.84636 L16.1110241,18.84636 L16.1110241,19.0055139 L16.4336988,19.0055139 L16.4336988,19.1646678 L16.7555904,19.1646678 L17.0782651,19.4829755 L17.4001566,19.4829755 C17.4541968,19.588048 17.5074538,19.693893 17.561494,19.8005107 L18.0447229,19.8005107 C18.0979799,19.9063557 18.1520201,20.0122008 18.2060603,20.1180458 C18.5279518,20.2238909 18.8498434,20.3305085 19.1725181,20.435581 C19.2257751,20.5421986 19.2798153,20.6480437 19.3330723,20.7538887 L19.8170844,20.7538887 C19.8703414,20.8597338 19.9243815,20.9655788 19.9776385,21.0721965 C20.3003133,21.1772689 20.6222048,21.2838866 20.9448796,21.3897316 C20.9981365,21.4955767 21.0521767,21.6014217 21.1062169,21.7072668 C21.4281085,21.8138844 21.75,21.9197295 22.0726747,22.0255745 C22.1259317,22.1314196 22.1799719,22.2372646 22.2340121,22.3431097 C22.5559036,22.4489547 22.8777952,22.5555724 23.1996867,22.6614174 C23.2537269,22.7672625 23.3077671,22.8731075 23.3618073,22.9789526 L23.6836988,22.9789526 C23.737739,23.0847976 23.790996,23.1906427 23.8450362,23.2972603 C24.5812358,23.7924915 25.2414659,24.0204061 25.2947229,25.2040164 L25.1333855,25.2040164 C25.0801286,25.4690153 25.0260884,25.7340142 24.9728314,25.9990132 L24.811494,25.9990132 L24.811494,26.4757022 L24.6501566,26.4757022 L24.6501566,26.7932373 L24.4888193,26.7932373 L24.4888193,27.1115451 C24.3815221,27.1640813 24.2742249,27.2173901 24.1669277,27.2699264 L24.1669277,27.5882341 C23.9523334,27.7466154 23.737739,27.9057693 23.5223615,28.0649231 L23.5223615,28.3824583 L23.3618073,28.3824583 C23.1996867,28.5941484 23.0391325,28.8066111 22.8777952,29.0183012 L22.5559036,29.0183012 C22.3945663,29.2299913 22.2340121,29.442454 22.0726747,29.6541441 L21.75,29.6541441 C21.696743,29.7599891 21.6427028,29.8658342 21.5886626,29.9724518 L21.2667711,29.9724518 C20.9448796,30.3425232 20.6222048,30.7141398 20.3003133,31.0849837 L19.9776385,31.0849837 C19.7630442,31.3492101 19.5484498,31.614209 19.3330723,31.8792079 L19.0111807,31.8792079 C18.8498434,32.090898 18.6892892,32.3033607 18.5279518,32.5150508 L18.2060603,32.5150508 C18.1520201,32.6208958 18.0979799,32.7267409 18.0447229,32.8325859 C17.8833855,32.8858948 17.7220482,32.9392036 17.561494,32.9917398 L17.561494,33.1508937 L17.2388193,33.1508937 C17.1855623,33.2567387 17.1315221,33.3625838 17.0782651,33.4684288 L16.7555904,33.4684288 C16.7023334,33.5742739 16.6482932,33.6801189 16.594253,33.7867366 C16.2723615,33.8925816 15.9504699,33.9984267 15.6277952,34.1042717 C15.5745382,34.2101168 15.520498,34.3159618 15.4664578,34.4218069 L14.9832289,34.4218069 C14.9299719,34.5284245 14.8759317,34.6342696 14.8226747,34.7401146 L14.3394458,34.7401146 C14.2854056,34.8459597 14.2313655,34.9518047 14.1781085,35.0576498 L13.6948796,35.0576498 L13.6948796,35.2168037 L13.3722048,35.2168037 L13.3722048,35.3759575 L12.8889759,35.3759575 L12.8889759,35.5343388 L12.5663012,35.5343388 L12.5663012,35.6934927 L12.0838555,35.6934927 L12.0838555,35.8526465 L11.7611807,35.8526465 L11.7611807,36.0118004 C11.4925462,36.0643366 11.2239116,36.1176455 10.9552771,36.1701817 L10.9552771,36.3293356 L10.3107108,36.3293356 L10.3107108,36.4884894 L9.98881927,36.4884894 L9.98881927,36.6468707 C9.66692773,36.7001795 9.344253,36.7534884 9.02236146,36.8060246 L9.02236146,36.9651785 C8.37779518,37.0710235 7.73322891,37.1768686 7.08866263,37.2827136 L7.08866263,37.4418675 L6.60543373,37.4418675 L6.60543373,37.6010214 L5.80031328,37.6010214 C5.32648266,37.741633 3.64653776,38.1796925 2.90015664,37.9185565 L2.90015664,37.7594026 L2.57748191,37.7594026 L2.57748191,37.6010214 L2.094253,37.6010214 C2.04021281,37.4951763 1.98695582,37.3885587 1.93291563,37.2827136 C0.700172842,36.4838539 0.00783191099,35.810154 0,33.7867366 L0.160554175,33.7867366 C0.214594361,33.4684288 0.268634547,33.1508937 0.321891542,32.8325859 L0.483228908,32.8325859 L0.483228908,32.3558969 L0.644566274,32.3558969 C0.859160635,31.7733628 1.07453819,31.1900562 1.28834936,30.6075221 C1.44968672,30.5549859 1.61102409,30.5016771 1.77236146,30.4483682 L1.77236146,30.6075221 L1.93291563,30.6075221 C1.87965864,30.8192122 1.82561845,31.0316749 1.77236146,31.243365 L1.61102409,31.243365 L1.61102409,31.720054 L1.44968672,31.720054 C1.17400346,32.5861292 1.71362212,34.5516023 2.094253,34.7401146 L3.22204818,34.7401146 C3.69039646,34.3515011 4.4696716,34.6342696 5.155747,34.4218069 L5.155747,34.2634256 C5.63897591,34.2101168 6.12220482,34.1575806 6.60543373,34.1042717 L6.60543373,33.9451179 C6.98136545,33.8925816 7.35729718,33.8392728 7.73322891,33.7867366 L7.73322891,33.6275827 L8.21645782,33.6275827 L8.21645782,33.4684288 L8.69968672,33.4684288 L8.69968672,33.3100476 L9.18369882,33.3100476 L9.18369882,33.1508937 L9.66692773,33.1508937 L9.66692773,32.9917398 L10.1501566,32.9917398 L10.1501566,32.8325859 L10.4720482,32.8325859 L10.4720482,32.6742047 L10.9552771,32.6742047 L10.9552771,32.5150508 C11.1706546,32.461742 11.385249,32.4092057 11.5998434,32.3558969 L11.5998434,32.1975156 L12.0838555,32.1975156 C12.1371125,32.090898 12.1903695,31.985053 12.2444096,31.8792079 L12.7276385,31.8792079 C12.7816787,31.7733628 12.8357189,31.6675178 12.8889759,31.5616727 L13.3722048,31.5616727 C13.426245,31.4558277 13.479502,31.3492101 13.5335422,31.243365 C13.8554337,31.13752 14.1781085,31.0316749 14.5,30.9258299 C14.5540402,30.8192122 14.6072972,30.7133672 14.6613374,30.6075221 L14.9832289,30.6075221 L14.9832289,30.4483682 C15.1445663,30.395832 15.3059036,30.3432958 15.4664578,30.289987 C15.520498,30.1841419 15.5745382,30.0775243 15.6277952,29.9724518 L15.9504699,29.9724518 C16.0037269,29.8658342 16.0577671,29.7599891 16.1110241,29.6541441 L16.4336988,29.6541441 C16.4869558,29.548299 16.540996,29.442454 16.594253,29.3358363 C16.876985,29.0824263 17.3030409,28.8127918 17.7220482,28.700766 L17.7220482,28.3824583 L18.0447229,28.3824583 C18.635249,27.7466154 19.2257751,27.1115451 19.8170844,26.4757022 C19.9776385,26.3698571 20.1389759,26.2632395 20.3003133,26.1573944 L20.3003133,25.6807054 L20.4608675,25.6807054 C20.7389003,25.1267572 20.7811926,24.631526 20.7835422,23.7739493 C20.5689478,23.6147955 20.3535703,23.4556416 20.1389759,23.2972603 L20.1389759,23.1381064 C19.9243815,23.0847976 19.709004,23.0322614 19.4944096,22.9789526 C19.4411526,22.8731075 19.3871125,22.7672625 19.3330723,22.6614174 L19.0111807,22.6614174 L18.6892892,22.3431097 L18.3666145,22.3431097 L18.3666145,22.1847284 L18.0447229,22.1847284 L18.0447229,22.0255745 L17.7220482,22.0255745 L17.7220482,21.8664206 L17.4001566,21.8664206 L17.4001566,21.7072668 L17.0782651,21.7072668 L17.0782651,21.5481129 L16.7555904,21.5481129 L16.7555904,21.3897316 L16.4336988,21.3897316 L16.4336988,21.2305777 L16.1110241,21.2305777 L16.1110241,21.0721965 L15.7891325,21.0721965 L15.7891325,20.9130426 L15.4664578,20.9130426 L15.4664578,20.7538887 L14.9832289,20.7538887 C14.9299719,20.6480437 14.8759317,20.5421986 14.8226747,20.435581 L14.3394458,20.435581 L14.3394458,20.2771997 L14.0167711,20.2771997 L14.0167711,20.1180458 C13.8013935,20.064737 13.5875824,20.0122008 13.3722048,19.9596646 L13.3722048,19.8005107 L12.8889759,19.8005107 L12.8889759,19.6413568 L12.5663012,19.6413568 L12.5663012,19.4829755 L12.0838555,19.4829755 L12.0838555,19.3230491 C11.8684779,19.2705128 11.6538835,19.217204 11.438506,19.1646678 L11.438506,19.0055139 L10.9552771,19.0055139 L10.9552771,18.84636 C10.7406827,18.7938238 10.5260884,18.740515 10.3107108,18.6879788 L10.3107108,18.5288249 L9.82748191,18.5288249 C9.77422491,18.4229798 9.72018473,18.3171348 9.66692773,18.2112897 L9.18369882,18.2112897 C9.12965864,18.1046721 9.07561845,17.998827 9.02236146,17.892982 L8.69968672,17.892982 C8.53913255,17.6812919 8.37779518,17.4696018 8.21645782,17.2571391 L8.05590364,17.2571391 L8.05590364,16.939604 C7.94782327,16.8862951 7.84052609,16.8337589 7.73322891,16.7804501 L7.73322891,16.1446072 C7.53351518,15.9151475 7.426218,14.7184031 7.57189154,14.2370785 L7.73322891,14.2370785 L7.73322891,13.6020082 L7.89456627,13.6020082 C7.94782327,13.3903181 8.00186345,13.1778554 8.05590364,12.9661653 C8.16320082,12.9136291 8.270498,12.8603203 8.37779518,12.8070114 L8.37779518,12.4894763 C8.48509236,12.4361675 8.59238954,12.3836312 8.69968672,12.3303224 L8.69968672,12.0127873 C9.12965864,11.6419433 9.55884736,11.2710993 9.98881927,10.9002553 C10.2574538,10.5827202 10.5260884,10.2644124 10.7947229,9.9461047 L11.1166145,9.9461047 C11.2779518,9.7344146 11.438506,9.5227245 11.5998434,9.3110344 L11.9225181,9.3110344 C11.9757751,9.20441676 12.0298153,9.09857171 12.0838555,8.99272666 L12.405747,8.99272666 C12.5130442,8.83357278 12.6203414,8.6751915 12.7276385,8.51603763 L13.0503133,8.51603763 C13.1576105,8.35688376 13.2649076,8.19850248 13.3722048,8.03934861 L13.6948796,8.03934861 C13.7481365,7.93350356 13.8013935,7.82765851 13.8554337,7.72104087 L14.1781085,7.72104087 C14.2313655,7.61519582 14.2854056,7.50935077 14.3394458,7.40350572 L14.6613374,7.40350572 C14.7153776,7.29766067 14.7686345,7.19181561 14.8226747,7.08597056 C15.1445663,6.97935292 15.4664578,6.87350787 15.7891325,6.76766282 C15.8423895,6.66181777 15.8964297,6.55597272 15.9504699,6.45012767 L16.2723615,6.45012767 C16.3264016,6.34428262 16.3796586,6.23766498 16.4336988,6.13181993 L16.7555904,6.13181993 C16.8096305,6.02597488 16.8628875,5.92012983 16.9169277,5.81428478 L17.2388193,5.81428478 L17.2388193,5.6551309 L17.561494,5.6551309 C17.614751,5.54928585 17.6687912,5.4434408 17.7220482,5.33759575 C17.9374257,5.28428693 18.1520201,5.2317507 18.3666145,5.17844188 C18.4206546,5.07259683 18.4739116,4.96597919 18.5279518,4.86090673 L19.0111807,4.86090673 C19.0652209,4.75506168 19.1184779,4.64844404 19.1725181,4.54259899 L19.655747,4.54259899 L19.655747,4.38421771 C19.8170844,4.33090889 19.9776385,4.27760006 20.1389759,4.22506383 C20.1930161,4.11921878 20.2462731,4.01337373 20.3003133,3.90675609 L20.7835422,3.90675609 C20.8367992,3.80091104 20.8908394,3.69506599 20.9448796,3.58922094 L21.4281085,3.58922094 L21.4281085,3.43006707 L21.75,3.43006707 L21.75,3.27168579 C21.9645944,3.21837697 22.1799719,3.16506815 22.3945663,3.11253192 L22.3945663,2.95337805 L22.8777952,2.95337805 C22.9318354,2.847533 22.9858756,2.74168794 23.0391325,2.6350703 L23.5223615,2.6350703 L23.5223615,2.47668902 C24.0596305,2.31753515 24.5968996,2.15838128 25.1333855,2 L25.1333855,2.15915387 C25.4560603,2.2116901 25.7779518,2.26422633 26.1006266,2.31753515 L26.1006266,2.47668902 L26.4225181,2.47668902 L26.4225181,2.6350703 C26.6684401,2.81894711 26.7036837,2.85834928 27.0670844,2.95337805" id="Fill-1"></path>
            <path d="M41.8969836,11.6714698 C41.9543246,12.0113554 42.0969021,12.4162423 41.8969836,12.799201 C41.7908254,12.8532381 41.6846671,12.9064921 41.577734,12.9605292 C41.1864208,13.547106 41.4986965,13.6136735 40.4619101,13.6050589 L40.4619101,13.765604 C40.3030602,13.71235 40.1434354,13.6583129 39.9838105,13.6050589 C39.7435984,13.6731926 39.0314858,13.9018715 38.5495119,13.765604 L38.5495119,13.6050589 L37.433688,13.6050589 L37.433688,13.765604 C36.9021218,13.8196411 36.3705557,13.8736782 35.8397645,13.9269322 C35.1842179,14.1383818 34.3589731,14.4297123 33.6081166,14.5714619 C33.4523662,15.0241206 33.6414364,15.8988954 33.4484918,16.5042678 L33.288867,16.5042678 C33.1827088,17.0415064 33.0765505,17.578745 32.9703923,18.1159836 L32.8107675,18.1159836 L32.8107675,18.5991851 L32.6511426,18.5991851 L32.6511426,19.0823866 L32.4922927,19.0823866 C32.4388261,19.5655881 32.3861345,20.0487896 32.3326679,20.5319911 C32.1002046,21.26345 31.7631328,22.229853 31.5353187,22.9487816 L31.5353187,23.7546395 C31.1966972,24.8510449 31.0618684,26.3139628 30.7387444,27.4597064 L30.7387444,29.5538405 C30.3830755,30.8178392 30.7581164,32.2486482 30.7387444,33.742892 C31.0781409,33.9386786 31.0851148,34.1054889 31.5353187,34.2260935 L31.5353187,34.0655484 C31.8011018,34.0115113 32.0668848,33.9582573 32.3326679,33.9042202 C32.3861345,33.796146 32.4388261,33.6888549 32.4922927,33.5823469 L32.8107675,33.5823469 C32.864234,33.4742727 32.9169257,33.3669816 32.9703923,33.2596905 L33.288867,33.2596905 C33.3423336,33.1523994 33.3950253,33.0451083 33.4484918,32.9370341 L33.7669666,32.9370341 L33.7669666,32.776489 L34.0862162,32.776489 L34.0862162,32.6151608 C34.7324642,32.3684696 35.2012652,32.5885338 35.8397645,32.6151608 C35.9738183,32.7984171 35.8196177,32.6386552 35.9986144,32.776489 C35.817293,32.9597453 35.9986144,32.840707 35.6801397,32.9370341 C35.3004496,33.3614996 35.2415589,33.0364937 34.7239406,33.2596905 L34.7239406,33.4202356 L34.4046909,33.4202356 C34.3519992,33.5283098 34.2985327,33.6356009 34.2450661,33.742892 C34.0862162,33.796146 33.9265914,33.8501831 33.7669666,33.9042202 L33.7669666,34.0655484 C33.4887855,34.2965767 33.3826272,34.4351936 32.9703923,34.5479667 L32.9703923,34.8706232 C32.8107675,34.9238771 32.6511426,34.9779143 32.4922927,35.0319514 L32.4922927,35.1932796 L32.1730431,35.1932796 C32.1203514,35.2997875 32.0668848,35.4078618 32.0141932,35.5151529 C31.8011018,35.56919 31.5887853,35.622444 31.3764688,35.6756979 L31.3764688,35.8370261 L30.7387444,35.8370261 C29.8119907,36.1369713 28.7899269,35.9873903 28.028997,35.6756979 C27.9344619,35.504972 27.7492662,35.4203921 27.7097474,35.3538247 L27.7097474,35.0319514 L27.5501226,35.0319514 L27.5501226,33.9042202 L27.3912727,33.9042202 L27.3912727,31.8093029 L27.5501226,31.8093029 C27.4974309,31.6487578 27.4439643,31.4874296 27.3912727,31.3261014 L27.5501226,31.3261014 L27.5501226,28.910094 L27.7097474,28.910094 L27.7097474,27.6210346 C28.1769987,26.0719705 28.3304245,24.1211522 28.8255713,22.6269084 L28.8255713,21.8210505 L28.9851961,21.8210505 C29.0913544,21.2305579 29.1975126,20.6400653 29.3044458,20.0487896 L29.4632957,20.0487896 L29.4632957,19.5655881 L29.6229205,19.5655881 L29.6229205,19.0823866 L29.7817704,19.0823866 L29.7817704,18.5991851 L29.9413952,18.5991851 L29.9413952,18.1159836 L30.1010201,18.1159836 L30.1010201,17.4714539 C30.3946987,16.6561983 30.8387036,15.9983551 30.8983692,14.8933351 L30.7387444,14.8933351 C30.405547,15.1830994 29.5865012,15.0264701 29.1440461,15.2159916 L29.1440461,15.3765366 L28.8255713,15.3765366 L28.8255713,15.5378648 L28.3474718,15.5378648 C27.478059,15.8879314 26.5823003,16.1682979 25.3184747,16.1823945 C25.1844209,15.9999214 25.3386216,16.1589001 25.1596248,16.0218495 C25.1061582,15.699193 25.0534666,15.3765366 25,15.0546633 C25.1805465,14.9183958 25.0232463,15.0750252 25.1596248,14.8933351 C26.3444129,14.8048396 27.4183934,14.2652515 28.3474718,13.9269322 L28.9851961,13.9269322 L28.9851961,13.765604 L29.4632957,13.765604 L29.4632957,13.6050589 L30.1010201,13.6050589 L30.1010201,13.4437307 C30.6852779,13.3364396 31.2703105,13.2291485 31.8545683,13.1218574 C31.9064852,12.3833501 32.3543645,10.9548906 32.6511426,10.3824104 L32.8107675,10.3824104 L32.8107675,10.0605371 L32.9703923,10.0605371 L32.9703923,9.57733564 C33.0765505,9.52329852 33.1827088,9.47004455 33.288867,9.41600743 C33.3423336,9.04009704 33.3950253,8.66418664 33.4484918,8.28827625 L33.6081166,8.28827625 L33.6081166,7.96640297 L33.7669666,7.96640297 C33.8204331,7.80507476 33.8738997,7.64374655 33.9265914,7.48241834 L34.2450661,7.48241834 L34.2450661,7.16054506 C34.7766322,7.10650795 35.3081984,7.05325397 35.8397645,7 C35.9738183,7.35946431 36.0040386,7.87555796 35.9986144,8.44960446 C35.3562408,9.03383186 35.7901723,9.24684775 35.5205149,10.0605371 L35.36089,10.0605371 L35.36089,10.5437386 L35.2020401,10.5437386 L35.2020401,10.866395 L35.0424153,10.866395 L35.0424153,11.3495965 L34.8827905,11.3495965 L34.8827905,12.3159995 L34.7239406,12.4773277 L35.5205149,12.4773277 C35.9281005,12.1139477 36.672758,12.3465422 37.2740631,12.1546713 L37.2740631,11.9941262 L37.9117875,11.9941262 L37.9117875,11.832798 L38.3898871,11.832798 L38.3898871,11.6714698 L41.8969836,11.6714698 Z" id="Fill-3"></path>
            <path d="M132.618234,64.7600444 L132.295442,64.7600444 C132.061182,65.6832667 131.268305,66.1001556 130.683832,66.6803778 C130.307764,67.1066 129.931695,67.5336 129.555627,67.9598222 L129.233618,67.9598222 L129.233618,68.1200444 C129.072222,68.2266 128.91161,68.3331556 128.750214,68.4397111 L128.105413,69.2400444 L127.783405,69.2400444 C127.622009,69.4531556 127.460613,69.6670444 127.299217,69.8801556 L127.138604,69.8801556 C127.084544,69.9867111 127.031268,70.0932667 126.977208,70.1998222 L126.655199,70.1998222 C126.493803,70.4137111 126.332407,70.6268222 126.171011,70.8399333 L125.687607,70.8399333 C125.480769,70.9340444 125.736966,70.9138222 125.526994,71.0001556 L125.526994,70.6797111 C125.94302,70.4541556 126.361396,70.0769333 126.493803,69.5597111 L126.815812,69.5597111 L126.815812,69.2400444 L127.138604,69.2400444 C127.285897,68.6886 127.755199,68.3269333 128.105413,67.9598222 C128.212749,67.9069333 128.320085,67.8532667 128.427422,67.8003778 L128.427422,67.4799333 L128.588818,67.4799333 C128.820726,67.2007111 128.957051,67.0933778 129.072222,66.6803778 L129.395014,66.6803778 C129.494516,66.2401556 129.771866,65.8512667 130.039031,65.5596 C130.147151,65.5067111 130.254487,65.4538222 130.361823,65.4001556 L130.361823,65.0804889 C130.46916,65.0268222 130.576496,64.9731556 130.683832,64.9202667 C130.737892,64.7600444 130.791168,64.5998222 130.845228,64.4396 L131.006624,64.4396 L131.006624,64.1199333 C131.11396,64.0662667 131.221296,64.0133778 131.328632,63.9597111 L131.328632,63.6400444 L131.651425,63.3196 L131.651425,62.9999333 L131.812037,62.9999333 L131.812037,62.6802667 L131.973433,62.6802667 L131.973433,62.3598222 L132.134829,62.3598222 C132.242165,62.0401556 132.349501,61.7197111 132.456838,61.4000444 L132.618234,61.4000444 C132.67151,61.1332667 132.72557,60.8664889 132.77963,60.5997111 L132.940242,60.5997111 L132.940242,60.2800444 L133.101638,60.2800444 L133.101638,59.8001556 L133.263034,59.8001556 L133.263034,59.4797111 L133.42443,59.4797111 L133.42443,58.9998222 L133.585043,58.9998222 L133.585043,58.6801556 L133.746439,58.6801556 C133.800499,58.3597111 133.853775,58.0400444 133.907835,57.7203778 L134.069231,57.7203778 L134.069231,57.2404889 L134.229843,57.2404889 L134.229843,56.7598222 L134.391239,56.7598222 L134.391239,56.2799333 L134.552635,56.2799333 L134.552635,55.6398222 C135.926068,52.2183778 136.800427,48.2812667 137.937251,44.6000444 C137.990527,43.8004889 138.044587,43.0001556 138.097863,42.1998222 L138.259259,42.1998222 C138.313319,41.7199333 138.366595,41.2400444 138.420655,40.7601556 L138.581268,40.7601556 L138.581268,40.1200444 L138.742664,40.1200444 L138.742664,39.4799333 L138.90406,39.4799333 L138.90406,38.8398222 L139.065456,38.8398222 L139.065456,38.3599333 L139.226068,38.3599333 L139.226068,37.8800444 L139.387464,37.8800444 L139.387464,36.4396 L139.54886,36.4396 C139.602137,35.9597111 139.656197,35.4798222 139.709473,34.9999333 L139.870869,34.9999333 L139.870869,34.1996 L140.032265,34.1996 C140.085541,33.0803778 140.139601,31.9603778 140.192877,30.8403778 L140.355057,30.8403778 C140.408333,30.5199333 140.46161,30.1994889 140.51567,29.8798222 L140.355057,29.8798222 C140.196795,30.0766 139.833262,30.1956 139.709473,30.3597111 L139.709473,30.6801556 C139.387464,30.9461556 139.065456,31.2137111 138.742664,31.4797111 C138.689387,31.5870444 138.635328,31.6936 138.581268,31.8001556 L138.259259,31.8001556 C138.097863,32.0132667 137.937251,32.2263778 137.775855,32.4402667 L137.453063,32.4402667 L137.453063,32.7599333 C136.885826,32.8766 136.581838,33.1884889 136.164245,33.4000444 L135.841453,33.4000444 L135.841453,33.5602667 C135.197436,33.6131556 134.551852,33.6668222 133.907835,33.7197111 C133.853775,33.4537111 133.800499,33.1869333 133.746439,32.9201556 L133.585043,32.9201556 L133.585043,30.2002667 L133.42443,30.2002667 C133.124359,30.5378222 132.695798,30.5883778 132.295442,30.8403778 C132.242165,30.9461556 132.188105,31.0534889 132.134829,31.1600444 C131.758761,31.2137111 131.382692,31.2666 131.006624,31.3202667 L131.006624,31.4797111 L130.361823,31.4797111 L130.361823,31.6399333 L130.039031,31.6399333 L130.039031,31.8001556 L129.717023,31.8001556 L129.717023,31.9603778 C129.448291,32.0132667 129.179558,32.0669333 128.91161,32.1198222 L128.91161,32.2800444 L128.588818,32.2800444 L128.588818,32.4402667 L127.138604,32.4402667 C126.901211,32.0801556 126.40057,31.9774889 126.171011,31.6399333 C126.117735,31.4268222 126.063675,31.2137111 126.010399,30.9998222 L125.849003,30.9998222 L125.849003,30.5199333 C124.968376,28.2216 125.67037,25.3391556 125.687607,22.6799333 L125.365598,22.6799333 C124.904131,23.4584889 123.849573,23.8209333 123.592593,24.7597111 L123.269801,24.7597111 C123.161681,25.1742667 123.016738,25.2831556 122.786396,25.5600444 L122.625783,25.5600444 L122.625783,25.8797111 C122.302991,26.1464889 121.980983,26.4132667 121.658191,26.6800444 L121.658191,27.0004889 C121.551638,27.0533778 121.443519,27.1062667 121.336182,27.1599333 L121.336182,27.4796 C121.12151,27.6398222 120.906054,27.8000444 120.691382,27.9602667 L120.691382,28.2799333 C120.584046,28.3336 120.476709,28.3864889 120.369373,28.4401556 L120.369373,28.7598222 L120.207977,28.7598222 C120.153917,28.9200444 120.100641,29.0794889 120.046581,29.2404889 L119.724573,29.2404889 C119.565527,30.0766 118.958333,30.6661556 118.434972,31.1600444 C118.381695,31.2666 118.327635,31.3731556 118.273575,31.4797111 L117.951567,31.4797111 C117.897507,31.5870444 117.844231,31.6936 117.790171,31.8001556 L117.468162,31.8001556 L117.468162,31.9603778 C116.984758,32.0957111 116.589886,31.5924889 116.178561,31.4797111 C116.156624,30.6171556 116.318803,30.1411556 116.501353,29.5601556 C116.55463,29.0794889 116.608689,28.5996 116.661966,28.1204889 L116.823362,28.1204889 L116.823362,27.6398222 L116.984758,27.6398222 L116.984758,27.0004889 L117.14537,27.0004889 C117.297365,26.4933778 116.918162,26.1861556 116.984758,25.8797111 L117.14537,25.8797111 C117.19943,25.5600444 117.25349,25.2396 117.306766,24.9199333 L117.468162,24.9199333 L117.468162,24.7597111 L117.306766,24.7597111 L117.306766,24.6002667 L117.468162,24.6002667 L117.468162,23.7999333 L117.629558,23.7999333 L117.629558,23.3200444 L117.790171,23.3200444 L117.790171,22.6799333 L117.951567,22.6799333 L117.951567,22.3602667 L118.112963,22.3602667 L118.112963,21.7201556 L118.273575,21.7201556 L118.273575,21.3997111 L118.434972,21.3997111 L118.434972,20.7603778 L118.596368,20.7603778 L118.596368,19.9600444 C118.977137,18.7544889 119.176923,16.4320444 120.369373,16.1201556 C120.784615,15.7304889 122.006838,16.0252667 122.464387,16.1201556 C122.487892,17.4804889 122.318661,18.0996 121.980983,19.0002667 L121.980983,19.4801556 L121.819587,19.4801556 C121.765527,20.0129333 121.712251,20.5464889 121.658191,21.0800444 C121.37614,21.9037111 121.050214,22.6379333 121.01339,23.7999333 L121.336182,23.7999333 C121.611182,23.4826 121.723219,23.6630444 121.980983,23.4802667 L121.980983,23.3200444 C122.088319,23.2663778 122.195655,23.2134889 122.302991,23.1598222 L122.302991,22.8401556 C122.517664,22.6799333 122.73312,22.5197111 122.947792,22.3602667 L122.947792,22.0398222 C123.269801,21.7730444 123.592593,21.5070444 123.915385,21.2402667 C125.15406,19.5377111 126.587037,17.8483778 129.395014,17.7200444 C129.50235,18.4130444 129.609687,19.1068222 129.717023,19.7998222 L129.555627,19.7998222 L129.555627,20.1202667 L129.395014,20.1202667 L129.395014,20.6001556 L129.233618,20.6001556 C129.126282,20.9198222 129.018946,21.2402667 128.91161,21.5599333 L128.750214,21.5599333 C128.696154,21.9332667 128.642877,22.3066 128.588818,22.6799333 L128.427422,22.6799333 L128.427422,24.4400444 L128.427422,27.9602667 L128.588818,27.9602667 L128.588818,28.7598222 C128.859117,28.9192667 129.283761,29.5072667 129.395014,29.5601556 L132.618234,29.5601556 L132.618234,29.3999333 C132.994302,29.3470444 133.37037,29.2933778 133.746439,29.2404889 C133.970513,27.8264889 134.166382,26.0648222 134.552635,24.7597111 L134.552635,23.6397111 L134.713248,23.6397111 L134.713248,22.6799333 L134.874644,22.6799333 L134.874644,21.7201556 L135.035256,21.7201556 L135.035256,20.7603778 C135.314957,19.8519333 135.484972,18.5748222 135.841453,17.7200444 C136.118803,17.6158222 136.347578,17.5676 136.809046,17.5598222 L136.809046,17.7200444 L137.29245,17.7200444 C137.345726,17.8266 137.399786,17.9331556 137.453063,18.0404889 L137.614459,18.0404889 C137.76802,18.3002667 137.929416,20.4173778 137.775855,20.9198222 L137.614459,20.9198222 C137.561182,21.5070444 137.507123,22.0934889 137.453063,22.6799333 C136.903846,24.5271556 136.693091,27.1412667 136.64765,29.3999333 C136.916382,29.3470444 137.185114,29.2933778 137.453063,29.2404889 C137.507123,29.1331556 137.561182,29.0266 137.614459,28.9200444 L138.097863,28.9200444 C138.151923,28.8134889 138.205199,28.7069333 138.259259,28.5996 L138.581268,28.5996 C138.635328,28.4938222 138.689387,28.3864889 138.742664,28.2799333 L139.065456,28.2799333 C139.280128,28.0131556 139.494801,27.7463778 139.709473,27.4796 C139.816809,27.4267111 139.924929,27.3738222 140.032265,27.3201556 L140.032265,27.0004889 C140.139601,26.9468222 140.246937,26.8931556 140.355057,26.8402667 L140.355057,26.5198222 C140.46161,26.4669333 140.568946,26.4132667 140.677066,26.3596 L140.677066,26.0399333 C140.784402,25.9862667 140.891738,25.9333778 140.999074,25.8797111 L140.999074,25.5600444 L141.16047,25.5600444 C141.213746,25.3469333 141.267806,25.1330444 141.321083,24.9199333 L141.482479,24.9199333 L141.482479,24.1203778 L141.643875,24.1203778 L141.643875,23.4802667 L141.805271,23.4802667 L141.805271,22.8401556 L141.965883,22.8401556 L141.965883,22.2000444 L142.127279,22.2000444 L142.127279,21.5599333 L142.288675,21.5599333 C142.341952,21.0800444 142.396011,20.6001556 142.449288,20.1202667 L142.610684,20.1202667 L142.610684,19.3199333 L142.77208,19.3199333 L142.77208,18.6798222 L142.933476,18.6798222 L142.933476,18.0404889 L143.094872,18.0404889 L143.094872,16.9197111 L143.255484,16.9197111 L143.255484,16.1201556 L143.41688,16.1201556 L143.41688,15.7997111 C143.578276,15.6931556 143.738889,15.5866 143.900285,15.4800444 C143.954345,15.3734889 144.007621,15.2669333 144.060897,15.1603778 L145.189886,15.1603778 L145.189886,15.3198222 L145.511895,15.3198222 C145.565954,15.4263778 145.619231,15.5329333 145.673291,15.6402667 L145.834687,15.6402667 L145.834687,16.9197111 L145.673291,16.9197111 C145.565954,17.7729333 145.458618,18.6269333 145.350499,19.4801556 L145.189886,19.4801556 L145.189886,20.2804889 L145.02849,20.2804889 L145.02849,20.9198222 L144.867094,20.9198222 L144.867094,21.7201556 L144.706481,21.7201556 L144.706481,22.2000444 L144.545085,22.2000444 C144.491026,23.2134889 144.436966,24.2269333 144.383689,25.2396 L144.223077,25.2396 L144.223077,25.8797111 L144.060897,25.8797111 L144.060897,26.5198222 L143.900285,26.5198222 L143.900285,27.6398222 L143.738889,27.6398222 L143.738889,28.2799333 L143.578276,28.2799333 L143.578276,28.9200444 L143.41688,28.9200444 L143.41688,29.2404889 L143.255484,29.2404889 C143.202208,29.7732667 143.148148,30.3068222 143.094872,30.8403778 L142.933476,30.8403778 C142.879416,31.6928222 142.82614,32.5468222 142.77208,33.4000444 L142.610684,33.4000444 L142.610684,34.1996 L142.449288,34.1996 L142.449288,34.8397111 L142.288675,34.8397111 L142.288675,35.6400444 L142.127279,35.6400444 C142.073219,36.1199333 142.019943,36.5998222 141.965883,37.0804889 L141.805271,37.0804889 L141.805271,37.5596 L141.643875,37.5596 L141.643875,38.3599333 L141.482479,38.3599333 L141.482479,39.0000444 L141.321083,39.0000444 L141.321083,39.6401556 L141.16047,39.6401556 L141.16047,40.2802667 L140.999074,40.2802667 L140.999074,42.1998222 L140.837678,42.1998222 L140.837678,43.1603778 L140.677066,43.1603778 L140.677066,44.2796 L140.51567,44.2796 L140.51567,45.0799333 L140.355057,45.0799333 L140.355057,46.0404889 L140.192877,46.0404889 L140.192877,46.3601556 L140.032265,46.3601556 C139.924929,47.0002667 139.816809,47.6403778 139.709473,48.2804889 L139.54886,48.2804889 L139.54886,48.7603778 L139.387464,48.7603778 C139.333405,49.1337111 139.280128,49.5070444 139.226068,49.8803778 L139.065456,49.8803778 C139.011396,50.2537111 138.957336,50.6270444 138.90406,51.0003778 L138.742664,51.0003778 L138.742664,51.6397111 L138.581268,51.6397111 C138.527991,52.0130444 138.473932,52.3863778 138.420655,52.7597111 L138.259259,52.7597111 L138.259259,53.2396 L138.097863,53.2396 L138.097863,53.7202667 L137.937251,53.7202667 L137.937251,54.2001556 C137.105983,56.2737111 136.309188,58.4888222 135.197436,60.2800444 L135.197436,60.5997111 L135.035256,60.5997111 L135.035256,60.9201556 L134.874644,60.9201556 L134.874644,61.2398222 L134.552635,61.5602667 L134.552635,61.8799333 C134.445299,61.9336 134.337179,61.9864889 134.229843,62.0401556 L134.229843,62.3598222 C134.122507,62.4134889 134.015171,62.4663778 133.907835,62.5200444 L133.907835,62.8397111 C133.504345,63.4401556 132.835256,63.9620444 132.618234,64.7600444" id="Fill-5"></path>
            <path d="M163.767539,24.1058684 L164.084934,24.1058684 C164.355222,23.7760113 164.465654,23.9649586 164.720497,23.776812 L164.720497,23.6118834 C164.826296,23.5566404 164.932094,23.5021979 165.038665,23.4469549 L165.038665,23.1178984 C165.250262,22.9529699 165.461858,22.7880414 165.673455,22.6239134 L165.673455,22.2940564 C165.991623,22.020243 166.30979,21.745629 166.627186,21.4710149 L166.627186,21.1411579 C166.838783,20.97703 167.050379,20.8121014 167.261976,20.6471729 L167.261976,20.483045 C167.368547,20.4278019 167.474345,20.3725589 167.580144,20.3181164 L167.580144,19.9882594 C167.739228,19.9338169 167.898311,19.8785739 168.056623,19.8241315 L168.056623,19.6592029 C168.329228,19.4222182 168.441976,19.2781059 168.85127,19.1652179 L168.85127,18.8353609 C169.168665,18.7256754 169.486832,18.6159899 169.804228,18.5063044 L169.804228,18.3413759 L170.122395,18.3413759 L170.122395,18.177248 L172.028311,17.8473909 C172.13411,18.5607468 172.239908,19.2749034 172.345707,19.9882594 L172.187395,19.9882594 L172.187395,20.3181164 L172.028311,20.3181164 L172.028311,20.8121014 L171.869228,20.8121014 C171.816715,21.0314724 171.763429,21.251644 171.710916,21.4710149 L171.551832,21.4710149 C171.446034,21.9649999 171.340236,22.4589849 171.233665,22.9529699 L171.075353,22.9529699 L171.075353,24.7647819 L171.075353,28.2234774 L171.233665,28.2234774 L171.233665,29.2114474 C171.500092,29.3755753 171.919424,29.980847 172.028311,30.0352895 L175.04627,30.0352895 L175.04627,29.8703609 L175.840916,29.8703609 C175.932814,30.1225575 175.96216,30.1409718 176,30.5292745 C175.818521,30.7166205 175.936675,30.5300751 175.840916,30.8591315 C175.682605,30.913574 175.523521,30.968817 175.364437,31.0232594 C175.311152,31.1329449 175.258639,31.243431 175.206126,31.3531165 L174.887958,31.3531165 C174.834673,31.4620014 174.78216,31.5724875 174.728874,31.682173 L174.093311,31.682173 L174.093311,31.8471015 L173.616832,31.8471015 L173.616832,32.01203 L172.98127,32.01203 L172.98127,32.1761579 L172.663874,32.1761579 L172.663874,32.3410865 L172.345707,32.3410865 L172.345707,32.506015 C172.081597,32.5604574 171.816715,32.6157005 171.551832,32.6701429 L171.551832,32.8350715 L171.233665,32.8350715 L171.233665,33 L169.804228,33 C169.570236,32.6293111 169.077539,32.5236287 168.85127,32.1761579 C168.797984,31.956787 168.745471,31.737416 168.692186,31.5172444 L168.533102,31.5172444 L168.533102,31.0232594 C167.665092,28.6574156 168.357029,25.6903032 168.37479,22.9529699 L168.056623,22.9529699 C167.602539,23.7543945 166.562317,24.1274853 166.30979,25.0938384 L165.991623,25.0938384 L165.991623,25.4236954 L165.673455,25.4236954 C165.570746,25.8512286 165.423246,25.9625154 165.196976,26.2467369 L165.038665,26.2467369 L165.038665,26.576594 C164.932094,26.6310364 164.826296,26.6862794 164.720497,26.7415225 L164.720497,26.906451 C164.614699,26.9608935 164.5089,27.0153359 164.403102,27.0705789 L164.403102,27.400436 C164.297303,27.4548784 164.190733,27.5093209 164.084934,27.5645639 L164.084934,27.8936204 C163.873338,28.0585489 163.661741,28.2234774 163.449372,28.388406 L163.449372,28.7174624 C163.343573,28.7727055 163.237775,28.8271479 163.131976,28.882391 L163.131976,29.2114474 C162.972892,29.3219335 162.814581,29.431619 162.655497,29.5413045 L162.655497,29.8703609 C162.549699,29.925604 162.4439,29.9800464 162.33733,30.0352895 L162.33733,30.3643459 C162.231531,30.419589 162.125733,30.474832 162.019934,30.5292745 C161.966649,30.7486454 161.914136,30.968817 161.860851,31.188188 C161.595968,31.4075589 161.331858,31.6277305 161.066204,31.8471015 C161.013691,31.956787 160.961178,32.0664725 160.907892,32.1761579 L160.590497,32.1761579 C160.537212,32.2858434 160.484699,32.3955289 160.431413,32.506015 L159.795851,32.506015 C159.595065,32.2466129 159.373429,32.105703 159.001976,32.01203 C158.980353,31.1225368 159.139437,30.6341562 159.319371,30.0352895 C159.372657,29.5413045 159.42517,29.0465189 159.478455,28.5533345 L159.636767,28.5533345 L159.636767,28.0585489 L159.795851,28.0585489 L159.795851,27.400436 L159.954934,27.400436 C160.104751,26.8784292 159.730209,26.5621827 159.795851,26.2467369 L159.954934,26.2467369 C160.007447,25.9176804 160.060733,25.588624 160.114018,25.2587669 L160.27233,25.2587669 L160.27233,24.4357255 L160.431413,24.4357255 L160.431413,24.2707969 L160.27233,24.2707969 L160.27233,24.1058684 L160.431413,24.1058684 L160.431413,23.6118834 L160.590497,23.6118834 L160.590497,22.9529699 L160.748809,22.9529699 L160.748809,22.6239134 L160.907892,22.6239134 L160.907892,22.1299285 L161.066204,22.1299285 L161.066204,21.6359435 L161.225288,21.6359435 L161.225288,20.97703 L161.384372,20.97703 L161.384372,20.1531879 C161.721845,19.05233 162.022251,16.7297198 162.814581,16.2005074 C163.260942,15.9018747 164.341322,16.0211676 165.038665,16.0355789 C165.172264,16.2229249 165.018586,16.0595976 165.196976,16.2005074 C165.226322,16.6600656 165.396989,17.3742221 165.196976,18.0123194 L165.038665,18.0123194 L165.038665,18.5063044 L164.879581,18.5063044 L164.879581,19.1652179 L164.720497,19.1652179 L164.720497,19.6592029 L164.561413,19.6592029 C164.5089,20.2076303 164.455615,20.7568584 164.403102,21.3060864 C164.125091,22.1539472 163.80229,22.9097362 163.767539,24.1058684" id="Fill-8"></path>
            <path d="M68.4347446,20.8110905 L68.7594447,20.8110905 C68.8674154,20.4863173 68.975386,20.1623324 69.0833567,19.8383475 C69.1913274,19.7839559 69.299298,19.7295642 69.4072687,19.6759609 L69.4072687,19.3511877 L69.5696188,19.3511877 C69.6239982,19.1895894 69.6775894,19.0272028 69.7319688,18.8648162 L70.0558808,18.8648162 C70.2978297,17.9740548 71.2459225,17.653223 71.6770171,16.9193302 L72.0017172,16.9193302 L72.0017172,16.594557 C72.2893762,16.578003 72.5857045,16.4266524 72.6503293,16.4329586 L72.6503293,16.594557 L73.2981533,16.594557 L73.2981533,16.9193302 L73.6228534,16.9193302 C73.568474,17.2433151 73.5148827,17.5680883 73.4605033,17.8920732 L73.2981533,17.8920732 L73.2981533,18.5408313 L73.1365913,18.5408313 C72.9111927,18.8656045 72.751207,19.0437568 72.6503293,19.5135743 L72.3256292,19.5135743 L72.3256292,19.8383475 L72.0017172,19.8383475 L72.0017172,20.1623324 C71.4137893,20.3255073 71.3499526,20.6747173 70.7044929,20.8110905 L70.7044929,21.1358637 C69.6176933,21.3873264 69.188175,22.3119841 68.1100445,22.4325916 C68.128171,21.5709967 68.3543577,21.485862 68.4347446,20.8110905 M76.5412138,26.6491251 L76.2173018,26.6491251 C76.1629224,26.7571201 76.1085431,26.8651151 76.0541637,26.9731101 C75.8390104,27.0275017 75.622281,27.081105 75.4063397,27.1354966 L75.4063397,27.2978832 C75.0824277,27.4058782 74.7577276,27.5138732 74.4338155,27.6218682 L74.4338155,27.7842548 C73.9475535,27.8922497 73.4605033,28.0002447 72.9742413,28.1082397 L72.9742413,28.2706263 L72.1632791,28.2706263 L72.1632791,28.4322246 L71.029193,28.4322246 L71.029193,28.2706263 L70.3805809,28.2706263 L70.3805809,28.1082397 C70.1102602,28.053848 69.8399395,28.0002447 69.5696188,27.9458531 C69.5160275,27.8378581 69.4616481,27.7298631 69.4072687,27.6218682 L69.0833567,27.6218682 L69.0833567,27.4594816 C68.5655704,27.0235603 68.2542681,26.6633143 68.1100445,25.8379804 L67.9484825,25.8379804 C67.7837682,25.404424 69.0171557,23.8917061 69.2457068,23.7301078 L69.5696188,23.7301078 C69.6239982,23.6221128 69.6775894,23.5141179 69.7319688,23.4061229 C70.0558808,23.2973397 70.3805809,23.1893447 70.7044929,23.0813497 L70.7044929,22.9189631 C70.9204343,22.8645715 71.1371637,22.8109681 71.353105,22.7573648 L71.353105,22.5949782 L71.6770171,22.5949782 L71.6770171,22.4325916 L72.0017172,22.4325916 L72.0017172,22.2709933 L72.3256292,22.2709933 L72.3256292,22.1086067 L72.6503293,22.1086067 L72.9742413,21.7838335 C73.1901826,21.7302302 73.406912,21.6758385 73.6228534,21.6214469 C73.6764447,21.5142402 73.7308241,21.405457 73.7852034,21.297462 C74.1634948,20.9734771 74.5417862,20.6487039 74.9200776,20.324719 L74.9200776,20.0007341 C75.0816396,19.8919508 75.2439896,19.7839559 75.4063397,19.6759609 L75.4063397,19.3511877 C75.5143103,19.2975843 75.622281,19.243981 75.7302517,19.1895894 L75.7302517,18.8648162 L75.8926017,18.8648162 L75.8926017,18.5408313 L76.0541637,18.5408313 C76.1085431,18.2704497 76.1629224,18.0000681 76.2173018,17.7296866 L76.3788638,17.7296866 C76.3670422,16.5401653 76.1384911,16.497598 75.7302517,15.7842005 L75.7302517,15.4594274 C75.5679016,15.3514324 75.4063397,15.2434374 75.2439896,15.1354424 L75.2439896,14.8114575 L75.0816396,14.8114575 C74.9736689,14.6490709 74.8656982,14.4866843 74.7577276,14.3242977 C74.4905593,14.1382626 74.3896816,14.3203563 74.1091154,14.0003128 C72.6180169,13.9861237 70.9913639,14.455153 70.3805809,15.297829 L70.3805809,15.6218139 C70.1102602,15.8378039 69.8399395,16.0545821 69.5696188,16.2705721 L69.5696188,16.594557 C69.1913274,16.9193302 68.813036,17.2441034 68.4347446,17.5680883 L68.4347446,17.8920732 C68.1108326,18.1624547 67.7861325,18.4328363 67.4622205,18.7032179 L67.4622205,19.0272028 C67.2998704,19.1351978 67.1375204,19.243981 66.9751703,19.3511877 C66.921579,19.5135743 66.8679878,19.6759609 66.8136084,19.8383475 C66.7056377,19.8919508 66.5968789,19.9463425 66.4896964,20.0007341 C66.435317,20.216724 66.3817257,20.432714 66.3273463,20.6487039 C66.2185875,20.7030955 66.1106169,20.7574872 66.0034343,20.8110905 C65.8402962,21.297462 65.6787342,21.7838335 65.5163842,22.2709933 L65.3540341,22.2709933 L65.3540341,22.5949782 L65.1924722,22.5949782 C64.7093625,23.7064593 64.5619865,27.441351 65.3540341,28.2706263 C65.2949261,28.8192722 65.353246,28.7932589 64.867772,28.9193844 L64.867772,29.2433693 C64.54386,29.2977609 64.2191599,29.3513642 63.8952479,29.4057559 L63.8952479,29.5673542 L63.0842858,29.5673542 L63.0842858,29.7297408 C62.7296376,29.8101458 62.6011761,29.5681425 62.5980237,29.5673542 L61.6254996,29.5673542 L61.6254996,29.4057559 C61.4095583,29.3513642 61.1936169,29.2977609 60.9768875,29.2433693 C60.877586,28.8665693 60.8302996,28.8594747 60.6529755,28.5946112 L60.4906254,28.5946112 L60.4906254,27.7842548 C60.1659253,26.7216473 60.3274873,24.9054399 60.3282754,23.5677212 L60.3282754,21.9462201 L60.4906254,21.9462201 L60.4906254,21.297462 L60.6529755,21.297462 C60.7065668,21.0270804 60.7609462,20.7566989 60.8153255,20.4863173 L60.9768875,20.4863173 C61.0312669,20.2703274 61.0848582,20.0543374 61.1392375,19.8383475 L61.3015876,19.8383475 L61.3015876,19.3511877 L61.4631495,19.3511877 L61.4631495,19.0272028 L61.6254996,19.0272028 C61.5175289,18.379233 61.4095583,17.7296866 61.3015876,17.0817168 C58.5904993,17.0730456 57.2522935,18.5904932 56.1134788,20.1623324 C56.0055081,20.216724 55.8967494,20.2703274 55.7895668,20.324719 C55.6272168,20.5407089 55.4648667,20.7574872 55.3025166,20.9734771 L55.1401666,20.9734771 L55.1401666,21.297462 L54.9786046,21.297462 C54.7469012,21.5788795 54.6018895,21.6884511 54.4923426,22.1086067 L54.1676425,22.1086067 C54.0281475,22.6296627 53.7530982,22.6816895 53.5190304,23.0813497 L52.8704183,23.0813497 C52.9011544,21.6774151 53.1966946,21.1563591 53.5190304,20.1623324 L53.5190304,19.3511877 L53.6813804,19.3511877 L53.6813804,18.8648162 L53.8437305,18.8648162 L53.8437305,18.0544598 C54.2038954,16.9886992 54.4340227,16.6615611 54.1676425,15.297829 C53.4938109,15.1598793 52.3739108,14.9612316 51.8978941,15.4594274 C51.2067243,15.9032315 50.8804479,17.3536749 50.601458,18.2160581 L50.601458,19.0272028 L50.439108,19.0272028 C50.3847286,19.5135743 50.3311373,20.0007341 50.2767579,20.4863173 L50.1144079,20.4863173 L50.1144079,20.9734771 L49.9528459,20.9734771 L49.9528459,21.4598486 L49.7904959,21.4598486 L49.7904959,21.9462201 L49.6281458,21.9462201 L49.6281458,22.4325916 L49.4665839,22.4325916 L49.4665839,23.0813497 L49.3042338,23.0813497 C49.2498544,23.6213246 49.195475,24.1620877 49.1418838,24.7028508 L48.9795337,24.7028508 L48.9795337,25.027624 L48.8179718,25.027624 L48.8179718,26.9731101 L48.6556217,26.9731101 L48.6556217,27.4594816 L48.4932716,27.4594816 L48.4932716,27.7842548 L48.3317097,27.7842548 C48.0952776,28.4204003 48.4065799,29.0951718 48.0070096,29.5673542 C47.9975523,30.2697156 47.9494778,30.8861541 48.3317097,31.1896436 C48.6170044,31.4166695 48.4901192,31.0296218 48.8179718,31.5136285 C50.4398961,31.3307465 51.4447326,28.9414563 52.2225943,27.7842548 C52.3305649,27.7298631 52.4385356,27.6762598 52.5465063,27.6218682 L52.5465063,27.2978832 C52.6544769,27.2434916 52.7624476,27.1891 52.8704183,27.1354966 C53.1423152,26.8383134 53.4142121,26.4473243 53.5190304,26.000367 L53.8437305,26.000367 C53.9595822,25.5809997 54.0967128,25.4722165 54.3299925,25.1892223 L54.4923426,25.1892223 L54.4923426,24.8652374 L54.6539045,24.8652374 C54.9620544,24.4971086 55.3245836,24.2606233 55.4648667,23.7301078 L55.7895668,23.7301078 C56.0141773,22.9000443 56.8495708,22.6241447 57.248353,21.9462201 L57.572265,21.9462201 C57.5328596,23.8838233 56.8771546,26.3574599 57.410703,28.2706263 L57.410703,29.5673542 L57.572265,29.5673542 C57.7755966,30.1388604 57.6447708,30.4998947 58.058527,30.8648704 C58.1664977,31.2700486 58.1420664,31.1305222 58.3832271,31.3520302 L58.3832271,31.5136285 L58.7071391,31.5136285 C58.7615185,31.6216235 58.8151098,31.7304067 58.8694892,31.8376134 L59.3557513,31.8376134 L59.3557513,32 C59.8963927,31.9463967 60.4370341,31.892005 60.9768875,31.8376134 L60.9768875,31.6760151 L61.3015876,31.6760151 L61.3015876,31.5136285 L61.7878497,31.5136285 L61.7878497,31.3520302 L62.1117617,31.3520302 L62.1117617,31.1896436 L62.5980237,31.1896436 L62.5980237,31.027257 L62.9227238,31.027257 L62.9227238,30.8648704 L63.4089859,30.8648704 L63.4089859,30.7032721 L63.7328979,30.7032721 L63.7328979,30.5408855 L64.2191599,30.5408855 C64.2735393,30.4328905 64.3279187,30.3241073 64.38151,30.2169006 L64.7062101,30.2169006 L64.7062101,30.054514 C64.9765308,29.838524 65.2468515,29.6217458 65.5163842,29.4057559 L65.5163842,29.2433693 C65.824534,29.1535048 67.1312155,30.6875064 67.6245705,30.8648704 C68.4883359,30.811267 69.3536774,30.7568754 70.2182309,30.7032721 L70.2182309,30.5408855 L70.7044929,30.5408855 L70.7044929,30.3784989 L71.190755,30.3784989 L71.190755,30.2169006 L71.8393671,30.2169006 L71.8393671,30.054514 L72.1632791,30.054514 L72.1632791,29.8921274 L72.6503293,29.8921274 L72.6503293,29.7297408 L72.9742413,29.7297408 L72.9742413,29.5673542 L73.4605033,29.5673542 L73.4605033,29.4057559 L73.7852034,29.4057559 L73.7852034,29.2433693 C74.0547361,29.1889776 74.3258449,29.1353743 74.5953775,29.0809827 C74.7041363,28.9193844 74.8113188,28.7569978 74.9200776,28.5946112 L75.2439896,28.5946112 C75.2975809,28.4866162 75.3519603,28.3786212 75.4063397,28.2706263 L75.7302517,28.2706263 C75.7846311,28.1626313 75.8390104,28.053848 75.8926017,27.9458531 L76.2173018,27.9458531 C76.5837716,27.7298631 76.9683679,27.344392 77.1898259,26.9731101 L77.5137379,26.9731101 L77.5137379,26.6491251 L77.8384381,26.6491251 L77.8384381,26.1627536 L78,26.1627536 L78,26.000367 C77.2836107,26.0949612 77.0203829,26.3787436 76.5412138,26.6491251" id="Fill-10"></path>
            <path d="M111.000112,22.2911999 L111.000112,22.932791 L110.838598,22.932791 L110.838598,23.2531968 L110.677867,23.2531968 L110.677867,23.894788 L110.516353,23.894788 L110.516353,24.2159733 L110.354839,24.2159733 L110.354839,24.6969718 C110.247424,24.749983 110.140009,24.8037737 110.032594,24.8575645 L110.032594,25.1779703 L108.419803,26.6217453 L108.096774,27.1019642 L107.77453,27.1019642 L107.77453,27.2625569 C107.450717,27.4457572 107.38172,27.2929603 107.129256,27.5837422 C106.668235,27.5759465 106.439292,27.5276127 106.161738,27.4231495 L106.161738,25.9793745 L106.323253,25.9793745 L106.323253,25.6589688 L106.483983,25.6589688 L106.483983,25.1779703 C106.591398,25.1241795 106.699597,25.0711684 106.806228,25.0173776 C106.860327,24.8037737 106.914427,24.5901699 106.967742,24.3757864 C107.129256,24.2689845 107.290771,24.1621826 107.452285,24.0553807 L107.452285,23.7349749 L107.77453,23.5743822 C107.828629,23.4137895 107.881944,23.2531968 107.936044,23.0933837 L108.096774,23.0933837 L108.096774,22.7721983 C108.204973,22.7191872 108.312388,22.6653964 108.419803,22.6123852 C108.473118,22.4517926 108.527218,22.2911999 108.581317,22.1306072 C108.742047,22.0238053 108.903562,21.9170033 109.065076,21.8102014 L109.065076,21.4897956 C109.387321,21.222401 109.709565,20.9550064 110.032594,20.6876118 L110.032594,20.367206 C110.301523,20.1528225 110.570453,19.9392187 110.838598,19.7256148 L110.838598,19.4044295 C111.000112,19.2976275 111.161626,19.1908256 111.323141,19.0840237 L111.323141,18.7636179 C111.392137,18.6599343 111.536402,18.6443427 111.645385,18.4424325 L111.96763,18.4424325 C111.925291,19.8222823 111.385865,21.222401 111.000112,22.2911999 M113.096662,15.3950694 C113.043347,15.5018714 112.989247,15.6094529 112.935932,15.7162548 L112.612903,15.7162548 C112.452173,15.9298586 112.290659,16.1434625 112.129144,16.3578459 L111.8069,16.3578459 C111.7528,16.4646479 111.699485,16.5714498 111.645385,16.6782517 L111.323141,16.6782517 C111.161626,16.8918556 111.000112,17.106239 110.838598,17.3198429 L110.516353,17.3198429 C110.462254,17.4266448 110.408938,17.5334467 110.354839,17.6410283 L110.032594,17.6410283 C109.763665,17.961434 109.494736,18.2818398 109.225806,18.6030252 L109.065076,18.6030252 L109.065076,18.923431 L108.742047,18.923431 C108.55858,19.6188129 108.017585,19.7606958 107.613015,20.2066133 C107.558916,20.367206 107.5056,20.5270191 107.452285,20.6876118 C107.129256,20.9550064 106.806228,21.222401 106.483983,21.4897956 C106.429884,21.595818 106.376568,21.7033995 106.323253,21.8102014 L106.000224,21.8102014 C105.946909,21.9170033 105.892809,22.0238053 105.83871,22.1306072 C105.62388,22.1843979 105.40905,22.2381887 105.19422,22.2911999 C105.140121,22.3980018 105.086022,22.5048037 105.032706,22.6123852 C104.817092,22.6653964 104.602263,22.7191872 104.387433,22.7721983 C104.333333,22.8790003 104.280018,22.9865818 104.225918,23.0933837 L103.903674,23.0933837 C103.849574,23.2001856 103.796259,23.3069876 103.742159,23.4137895 L103.419915,23.4137895 C103.365815,23.5205914 103.311716,23.6273934 103.258401,23.7349749 C102.935372,23.8417768 102.613127,23.9485787 102.290883,24.0553807 C102.236783,24.1621826 102.182684,24.2689845 102.129368,24.3757864 L101.80634,24.3757864 L101.484095,24.6969718 L101.16185,24.6969718 C101.053651,24.8575645 100.946237,25.0173776 100.838822,25.1779703 C100.623992,25.2309815 100.409162,25.2847722 100.193548,25.338563 C100.140233,25.4453649 100.086134,25.5521668 100.032818,25.6589688 L99.7097894,25.6589688 L99.7097894,25.8195614 L99.3875448,25.8195614 L99.3875448,25.9793745 L98.9037858,25.9793745 L98.9037858,26.1399672 L98.5807572,26.1399672 L98.5807572,26.3005599 C98.311828,26.3535711 98.0436828,26.4073618 97.7747536,26.4611526 L97.7747536,26.6217453 L97.2909946,26.6217453 L97.2909946,26.7815584 L96.9679659,26.7815584 L96.9679659,26.9421511 L96.484207,26.9421511 L96.484207,27.1019642 L96.000448,27.1019642 L96.000448,27.2625569 L95.515905,27.2625569 L95.515905,27.4231495 L95.0329301,27.4231495 L95.0329301,27.5837422 L94.3876568,27.5837422 L94.3876568,27.7443349 C93.9572133,27.7973461 93.5267697,27.8503573 93.0971102,27.904148 L93.0971102,28.0647407 L92.2903226,28.0647407 C89.9115143,28.7835099 86.7478719,28.3656571 85.6776434,26.7815584 L85.6776434,26.4611526 L85.516129,26.4611526 L85.516129,26.1399672 L85.3553987,26.1399672 C85.125672,25.6223287 84.781474,22.7020365 85.0323701,21.8102014 L85.1938844,21.8102014 L85.1938844,20.6876118 L85.3553987,20.6876118 L85.3553987,19.8862075 L85.516129,19.8862075 L85.516129,19.2446164 L85.6776434,19.2446164 L85.6776434,18.6030252 L85.8391577,18.6030252 L85.8391577,17.961434 L85.999888,17.961434 C86.0539875,17.6940394 86.1073029,17.4266448 86.1614023,17.1592502 L86.3229167,17.1592502 L86.3229167,16.8388444 L86.483647,16.8388444 L86.483647,16.3578459 L86.6459453,16.3578459 L86.6459453,16.0366606 L86.8066756,16.0366606 L86.8066756,15.5556621 C86.9140905,15.5018714 87.0215054,15.4488602 87.1297043,15.3950694 L87.1297043,14.9140709 C87.2363351,14.8610598 87.3445341,14.807269 87.4519489,14.7542578 C87.5593638,14.4330725 87.6667787,14.1126667 87.7741935,13.7914813 C87.8823925,13.7384701 87.9890233,13.6846794 88.0972222,13.6316682 L88.0972222,13.3104828 C88.3293011,12.9105603 88.6123432,12.7538655 88.7417115,12.1878932 L89.0647401,12.1878932 C89.3846326,10.9904643 90.7159498,10.3886315 91.00056,9.30112281 L91.3228047,9.30112281 C91.4780466,8.73281181 91.7830421,8.68447809 92.1295923,8.33912587 C92.7207661,7.69753471 93.31194,7.05594356 93.9031138,6.4143524 L94.2261425,6.4143524 L94.2261425,6.09394661 C94.6424731,5.97467146 94.749888,5.84448225 95.0329301,5.61294814 L95.0329301,5.45235546 L95.3551747,5.45235546 C95.4084901,5.34555353 95.4625896,5.2387516 95.515905,5.13194967 L95.6774194,5.13194967 C95.7315188,5.02514774 95.7856183,4.91756623 95.8389337,4.8107643 L96.1619624,4.8107643 C96.2152778,4.70396237 96.2685932,4.59716044 96.3226927,4.49035851 L96.6449373,4.49035851 L96.6449373,4.32976583 C96.8064516,4.27675465 96.9679659,4.2229639 97.1294803,4.16917314 C97.2368952,4.00936004 97.34431,3.84876736 97.4517249,3.68817467 C97.6665547,3.6351635 97.8821685,3.58137274 98.0969982,3.52836157 C98.1503136,3.42078006 98.2044131,3.31397813 98.2585125,3.2071762 C98.4200269,3.15416502 98.5807572,3.10037427 98.7422715,3.04658352 L98.7422715,2.88677041 C98.9571013,2.83297966 99.1727151,2.77996848 99.3875448,2.72617773 L99.3875448,2.56558504 L99.7097894,2.56558504 L99.7097894,2.40577194 C100.032818,2.29819043 100.355063,2.1913885 100.677307,2.08458657 L100.677307,1.92399389 C101.000336,1.87098271 101.322581,1.81719196 101.645609,1.76418078 L101.645609,1.6035881 C102.539427,1.28396189 105.108759,1.18651487 105.677195,1.76418078 C106.258177,1.91931643 106.353831,2.30130874 106.806228,2.56558504 L106.806228,2.88677041 C107.284498,3.00838429 107.202957,3.14636926 107.77453,3.2071762 C107.751792,2.55623013 107.709453,2.1913885 107.452285,1.76418078 L107.290771,1.76418078 C107.236671,1.6035881 107.183356,1.44299542 107.129256,1.28318231 L106.806228,1.28318231 C106.707437,0.894173821 106.636873,0.930034323 106.483983,0.641591155 C106.026882,0.544923715 105.595654,0.280647407 105.19422,0.159813107 L103.419915,0.159813107 C102.935372,0.10680193 102.451613,0.053790753 101.967854,0 L101.967854,0.159813107 L101.16185,0.159813107 L101.16185,0.32040579 L100.516577,0.32040579 L100.516577,0.480998472 L100.032818,0.480998472 L100.032818,0.641591155 L99.3875448,0.641591155 L99.3875448,0.802183838 L98.9037858,0.802183838 L98.9037858,0.961996945 L98.2585125,0.961996945 L98.2585125,1.12258963 L97.9354839,1.12258963 L97.9354839,1.28318231 L97.4517249,1.28318231 L97.4517249,1.44299542 L97.1294803,1.44299542 L97.1294803,1.6035881 L96.6449373,1.6035881 L96.6449373,1.76418078 C96.3226927,1.87098271 96.000448,1.97778464 95.6774194,2.08458657 L95.6774194,2.24517926 L95.3551747,2.24517926 L95.3551747,2.40577194 C95.1395609,2.45878312 94.9247312,2.51257387 94.7099014,2.56558504 C94.655802,2.67238697 94.6024866,2.77996848 94.5483871,2.88677041 C94.2261425,2.99357234 93.9031138,3.10037427 93.5808692,3.2071762 C93.5267697,3.31397813 93.4734543,3.42078006 93.4193548,3.52836157 L93.0971102,3.52836157 L93.0971102,3.68817467 C92.9355959,3.74196543 92.7740815,3.7949766 92.6133513,3.84876736 C92.5592518,3.95556929 92.5059364,4.06237122 92.4518369,4.16917314 L92.1295923,4.16917314 C91.968078,4.38355658 91.8065636,4.59716044 91.6450493,4.8107643 L91.3228047,4.8107643 L90.8390457,5.45235546 L90.5168011,5.45235546 C90.2478719,5.77354082 89.9781586,6.09394661 89.7100134,6.4143524 L89.3877688,6.4143524 C88.9032258,6.94914163 88.4194668,7.48393085 87.9357079,8.0179405 L87.6126792,8.0179405 L87.1297043,8.66031123 C86.6459453,9.08751895 86.1614023,9.51550625 85.6776434,9.94271397 L85.6776434,10.2631198 C85.4087142,10.4775032 85.1397849,10.6911071 84.8708557,10.9054905 L84.8708557,11.2258963 C84.656026,11.386489 84.4411962,11.5463021 84.2263665,11.7068947 L84.2263665,12.0273005 C84.1181676,12.0810913 84.0107527,12.134882 83.9033378,12.1878932 C83.8500224,12.3484859 83.7959229,12.5090786 83.7418235,12.6688917 L83.5810932,12.6688917 L83.5810932,12.9900771 C83.4736783,13.0430882 83.3654794,13.096879 83.2580645,13.1498902 C83.1506496,13.4710755 83.0432348,13.7914813 82.9358199,14.1126667 C82.828405,14.1656779 82.7209901,14.2194686 82.6127912,14.2724798 C82.1831317,15.4488602 81.7526882,16.6252406 81.3230287,17.8008414 C81.2689292,18.6560364 81.2156138,19.512011 81.1615143,20.367206 L81,20.367206 L81,22.4517926 L81.1615143,22.4517926 C81.2156138,22.932791 81.2689292,23.4137895 81.3230287,23.894788 L81.484543,23.894788 L81.484543,24.2159733 L81.6452733,24.2159733 L81.6452733,24.6969718 L81.8067876,24.6969718 C81.9142025,25.0173776 82.0216174,25.338563 82.1290323,25.6589688 L82.2905466,25.6589688 L82.2905466,25.9793745 C82.3979615,26.0331653 82.5053763,26.086956 82.6127912,26.1399672 C82.6668907,26.3535711 82.7209901,26.5679545 82.7743056,26.7815584 C82.8817204,26.8353491 82.9891353,26.8883603 83.0973342,26.9421511 L83.0973342,27.2625569 C83.2580645,27.3701384 83.4195789,27.4761607 83.5810932,27.5837422 L83.5810932,27.904148 C83.9033378,28.1715426 84.2263665,28.4389372 84.5486111,28.7063318 C84.7634409,28.9729469 84.9790547,29.2411211 85.1938844,29.5077361 L85.516129,29.5077361 C85.6776434,29.7221195 85.8391577,29.9357234 85.999888,30.1493273 L86.3229167,30.1493273 C86.3770161,30.2561292 86.4303315,30.3629311 86.483647,30.4705126 L86.8066756,30.4705126 C86.859991,30.5773146 86.9140905,30.6841165 86.96819,30.7909184 C87.1830197,30.8447092 87.3978495,30.8977203 87.6126792,30.9515111 L87.6126792,31.1113242 C87.828293,31.165115 88.0431228,31.2189057 88.2587366,31.2719169 L88.2587366,31.4325096 C88.8389337,31.6897697 91.2726254,32.2042899 92.2903226,31.913508 L92.2903226,31.7529154 L93.0971102,31.7529154 L93.0971102,31.5931023 C93.4734543,31.5393115 93.8497984,31.4855208 94.2261425,31.4325096 L94.2261425,31.2719169 L94.5483871,31.2719169 L94.5483871,31.1113242 L95.0329301,31.1113242 L95.0329301,30.9515111 C95.3551747,30.8447092 95.6782034,30.7371277 96.000448,30.6303257 L96.000448,30.4705126 L96.3226927,30.4705126 C96.3767921,30.3629311 96.4301075,30.2561292 96.484207,30.1493273 C96.8064516,30.0425253 97.1294803,29.9357234 97.4517249,29.8289215 C97.5058244,29.7221195 97.5591398,29.6153176 97.6132392,29.5077361 L97.9354839,29.5077361 C97.9895833,29.4009342 98.0436828,29.2941322 98.0969982,29.1873303 L98.4200269,29.1873303 C98.5807572,28.9729469 98.7422715,28.759343 98.9037858,28.5457392 L99.2260305,28.5457392 C99.3867608,28.3321353 99.5490591,28.1185314 99.7097894,27.904148 L100.032818,27.904148 L100.032818,27.5837422 C100.574597,27.448096 101.513889,26.52118 101.645609,25.9793745 L101.967854,25.9793745 L101.967854,25.6589688 C102.386537,25.5498281 102.493168,25.4071657 102.774642,25.1779703 L102.774642,25.0173776 C103.165883,24.7437464 103.484207,24.7796069 103.742159,24.3757864 L103.903674,24.3757864 C103.796259,24.6969718 103.68806,25.0181572 103.580645,25.338563 C103.419915,25.4453649 103.258401,25.5521668 103.096886,25.6589688 L103.096886,25.9793745 L102.935372,25.9793745 L102.935372,26.3005599 C102.827957,26.3535711 102.720542,26.4073618 102.613127,26.4611526 L102.613127,26.7815584 C102.505712,26.8353491 102.398297,26.8883603 102.290883,26.9421511 L102.290883,27.4231495 C102.182684,27.4761607 102.075269,27.5299515 101.967854,27.5837422 C101.662074,28.1769997 101.966286,29.0657164 101.80634,29.8289215 L101.645609,29.8289215 C101.688732,30.0916386 101.861223,30.0238155 101.967854,30.4705126 C103.765681,30.4377704 104.915883,30.3255115 106.161738,29.8289215 L106.645497,29.8289215 L106.645497,29.6683288 L106.967742,29.6683288 L106.967742,29.5077361 L107.452285,29.5077361 L107.452285,29.347923 C107.77453,29.2411211 108.096774,29.1335396 108.419803,29.0267376 C109.064292,28.6837241 109.609207,28.1481553 110.516353,28.0647407 C110.570453,28.3851465 110.623768,28.7063318 110.677867,29.0267376 L110.838598,29.0267376 C111.044019,29.3806652 111.448589,29.7992976 111.8069,29.9895142 L112.129144,29.9895142 L112.129144,30.1493273 L112.935932,30.1493273 L112.935932,30.3099199 L113.258177,30.3099199 C113.196237,30.1875265 112.935932,29.9895142 112.935932,29.9895142 L112.935932,29.1873303 L112.774418,29.1873303 C112.881832,28.0109499 112.989247,26.8353491 113.096662,25.6589688 L113.258177,25.6589688 L113.258177,24.6969718 L114.387209,21.8102014 L114.548723,21.8102014 C114.602823,21.5965975 114.656138,21.3822141 114.709453,21.1686102 L114.870968,21.1686102 C114.925067,20.8482045 114.979167,20.5270191 115.032482,20.2066133 L115.193996,20.2066133 L115.193996,19.7256148 L115.355511,19.7256148 L115.355511,19.4044295 L115.516241,19.4044295 L115.516241,18.7636179 L115.677755,18.7636179 L115.677755,18.2818398 L115.838486,18.2818398 L115.838486,17.4804356 L116,17.4804356 L116,14.9140709 C114.705533,14.6755207 113.995968,14.801812 113.096662,15.3950694" id="Fill-12"></path>
            <path d="M45.614189,21.9301835 L45.4558309,21.9301835 L45.4558309,22.4108618 C45.3505151,22.4646167 45.2451992,22.5175926 45.1398834,22.5713475 L45.1398834,23.0520258 L44.9815253,23.0520258 C44.7570565,23.3644278 44.6048482,23.5537387 44.5072197,24.0133824 L44.1912722,24.0133824 C44.0290704,24.6654533 43.6877549,24.5704083 43.4002503,24.974739 L43.4002503,25.2957106 C43.2949345,25.3486865 43.1896187,25.4024414 43.0843028,25.4554173 C42.8206289,25.7763889 42.556955,26.0973605 42.293281,26.417553 L41.9773335,26.417553 C41.7667019,26.6847696 41.5553015,26.9519862 41.3446698,27.2192028 C41.0287223,27.3259337 40.7120061,27.4318855 40.3960586,27.5393953 C40.3430163,27.6461262 40.2907428,27.752857 40.2377005,27.8595879 L39.6050368,27.8595879 L39.6050368,28.0200736 C39.236047,27.9670978 38.8670572,27.9133428 38.4980674,27.8595879 L38.4980674,27.6998811 C38.0229931,27.3789096 37.5456126,26.1674756 37.8654037,25.1352248 L38.0237618,25.1352248 L38.0237618,24.6545465 L38.1821199,24.6545465 L38.1821199,24.0133824 L38.340478,24.0133824 L38.340478,23.6931899 L38.4980674,23.6931899 L38.4980674,23.2125116 C38.6033833,23.1587567 38.7094678,23.1050017 38.8140149,23.0520258 L38.8140149,22.4108618 C38.9200995,22.3571068 39.0254153,22.3041309 39.1307311,22.250376 L39.1307311,21.7696977 L39.2890893,21.7696977 C39.3944051,21.4495052 39.4997209,21.1285336 39.6050368,20.8083411 L39.7633949,20.8083411 C39.9463523,20.5652752 39.9832513,20.5271014 40.0793424,20.167177 L40.3960586,20.167177 C40.5321236,19.6545574 40.814247,19.5119899 41.0287223,19.0453346 C42.5877041,19.0741597 43.8445755,19.5392569 44.8239359,20.167177 C44.8762094,20.2739078 44.9292517,20.3806387 44.9815253,20.4873695 L45.2982415,20.4873695 L45.2982415,20.6478553 C45.4558309,20.7016102 45.614189,20.7545861 45.7725471,20.8083411 C45.7533289,21.2991471 45.7725471,21.5873983 45.614189,21.9301835 M47.9864858,21.9301835 L47.8281277,21.9301835 L47.8281277,21.4495052 L47.6697695,21.4495052 L47.6697695,20.8083411 L47.5121802,20.8083411 L47.5121802,20.4873695 L47.353822,20.4873695 C47.2485062,20.167177 47.1431904,19.8469845 47.0378745,19.5260129 C46.93179,19.473037 46.8272429,19.4192821 46.7211583,19.3655271 L46.7211583,19.0453346 C46.6158425,18.9923587 46.5105267,18.9386038 46.4052108,18.8848488 L46.4052108,18.5646563 C46.0362211,18.2444638 45.6672313,17.9234922 45.2982415,17.6032997 C45.1398834,17.389059 44.9815253,17.1755973 44.8239359,16.9621357 L44.5072197,16.9621357 C44.4549461,16.8546258 44.4019038,16.748674 44.3488616,16.6411641 C44.1912722,16.5881882 44.0329141,16.5344332 43.8745559,16.4814574 L43.8745559,16.3209716 C43.6116507,16.2672166 43.3479768,16.2142407 43.0843028,16.1604858 L43.0843028,16 C41.7928386,16.0444063 39.811056,16.8281378 39.2890893,17.6032997 C39.236047,17.8167614 39.1830047,18.0302231 39.1307311,18.2444638 C39.0254153,18.2974397 38.9200995,18.3511947 38.8140149,18.4041705 L38.8140149,18.7251421 L38.4980674,19.0453346 L38.4980674,19.3655271 L38.340478,19.3655271 L38.340478,19.6864987 L38.1821199,19.6864987 L38.1821199,20.0066912 C38.0760354,20.0604462 37.9714883,20.1134221 37.8654037,20.167177 C37.8131302,20.3276628 37.7600879,20.4873695 37.7070456,20.6478553 L37.5494562,20.6478553 C37.4441404,20.9688269 37.3380558,21.2890194 37.23274,21.6092119 C37.1274242,21.6629668 37.0221083,21.7167218 36.9167925,21.7696977 C36.8645189,21.9831593 36.8114767,22.1974001 36.7584344,22.4108618 L36.6000763,22.4108618 L36.6000763,22.7310543 L36.4424869,22.7310543 C36.3371711,23.0520258 36.2310865,23.3729974 36.1257707,23.6931899 L35.9681813,23.6931899 L35.9681813,24.1738682 L35.8098232,24.1738682 L35.8098232,24.4948398 L35.6514651,24.4948398 L35.6514651,24.974739 L35.4931069,24.974739 L35.4931069,25.6159031 L35.3355176,25.6159031 L35.3355176,27.2192028 L35.1771594,27.2192028 L35.1771594,27.6998811 L35.0188013,27.6998811 C34.931935,28.052794 35.1740845,28.1712107 35.1771594,28.1797804 C35.2302017,28.6074828 35.2824753,29.0351852 35.3355176,29.4621085 C35.4408334,29.5158635 35.5461492,29.5696184 35.6514651,29.6225943 L35.6514651,29.9435659 L35.8098232,29.9435659 C35.8620967,30.1032726 35.915139,30.2637584 35.9681813,30.4242442 C36.1257707,30.4772201 36.2841288,30.530975 36.4424869,30.5839509 L36.4424869,30.7444367 L36.7584344,30.7444367 L36.7584344,30.9049225 C37.8154363,31.3045788 39.5020271,30.3291992 40.0793424,30.1032726 C40.6597325,29.9965418 41.239354,29.8898109 41.8189754,29.7830801 L41.8189754,29.6225943 L42.1356916,29.6225943 L42.1356916,29.4621085 L42.4516391,29.4621085 C42.5046814,29.3553777 42.556955,29.2486469 42.6099972,29.141916 C42.8206289,29.0881611 43.0312606,29.0351852 43.242661,28.9814302 C43.3479768,28.8217235 43.4532926,28.6612377 43.5586085,28.5007519 L43.8745559,28.5007519 C43.9806405,28.3410452 44.0859563,28.1797804 44.1912722,28.0200736 L44.5072197,28.0200736 C44.6125355,27.8595879 44.7178513,27.6998811 44.8239359,27.5393953 C45.1929257,27.2192028 45.5619154,26.8982313 45.9309052,26.5780388 L45.9309052,26.2570672 C46.0892633,26.1503363 46.2468527,26.0436055 46.4052108,25.9368747 L46.4052108,25.6159031 C46.5105267,25.5629272 46.6158425,25.5091723 46.7211583,25.4554173 C46.8272429,25.1352248 46.93179,24.8150323 47.0378745,24.4948398 L47.1962327,24.4948398 C47.3661217,24.1699729 48.1087136,22.3804785 47.9864858,21.9301835" id="Fill-14"></path>
            <path d="M156.443374,22.9680764 L156.283391,22.9680764 L156.283391,23.4518175 C156.176995,23.5059149 156.070598,23.5592284 155.964201,23.6133258 L155.964201,23.9355585 C155.857805,23.989656 155.751408,24.0437534 155.645011,24.0970669 L155.645011,24.4192996 C155.537838,24.473397 155.431442,24.5274945 155.325045,24.5808079 L155.325045,24.9038246 C155.112252,25.064549 154.899458,25.2260573 154.685889,25.3867817 L154.685889,25.7097984 C154.206715,26.139442 153.727542,26.5698696 153.248369,27.0002972 C153.035576,27.2692164 152.822006,27.5381357 152.609213,27.8062709 L152.289246,27.8062709 C152.183626,27.9677793 152.076453,28.1292876 151.970056,28.290796 C151.53515,28.5808838 151.043551,28.5338425 150.69252,28.9352614 C149.622341,28.9305572 149.731067,28.8051138 149.094241,28.4515203 C148.559151,27.0920276 148.778934,26.2672374 149.254224,25.064549 L149.254224,24.5808079 L149.414207,24.5808079 C149.467794,24.3659861 149.520604,24.1503803 149.573414,23.9355585 L149.733397,23.9355585 L149.733397,23.6133258 L149.893381,23.6133258 L149.893381,23.1295848 L150.052587,23.1295848 C150.106174,22.914763 150.15976,22.6991572 150.213347,22.4843354 L150.372554,22.4843354 L150.372554,22.0005944 C150.532537,21.8923994 150.69252,21.7849885 150.851727,21.6775776 L150.851727,21.355345 C151.01171,21.2479341 151.170917,21.1397391 151.3309,21.0323282 L152.13004,19.9033378 C152.822006,20.0648462 153.514749,20.2263545 154.206715,20.3870788 L154.206715,20.5485872 C154.526682,20.6559981 154.845872,20.763409 155.165062,20.8716039 L155.165062,21.0323282 C155.378632,21.0864257 155.591425,21.1397391 155.804218,21.1938366 C155.857805,21.3020315 155.910615,21.4086584 155.964201,21.5160693 C156.176995,21.6242642 156.390564,21.7316751 156.603358,21.839086 C156.590932,22.3314513 156.601028,22.6270272 156.443374,22.9680764 L156.443374,22.9680764 Z M158.840017,23.2903091 L158.840017,22.4843354 L158.680033,22.4843354 C158.627223,22.1613187 158.573637,21.839086 158.52005,21.5160693 L158.360844,21.5160693 C158.254447,21.1938366 158.147274,20.8716039 158.040877,20.5485872 L157.88167,20.5485872 L157.88167,20.2263545 C157.774497,20.172257 157.668101,20.1189436 157.561704,20.0648462 L157.561704,19.7426135 L157.401721,19.7426135 C157.173395,19.4587978 157.035934,19.354523 156.922548,18.9358557 L156.603358,18.9358557 L156.603358,18.613623 L156.283391,18.613623 L156.283391,18.2906063 C155.866347,18.1777073 155.76927,18.0357994 155.485028,17.8068653 L155.485028,17.6453569 C155.053229,17.3552691 154.553864,17.4046624 154.206715,17.0008915 C152.280703,16.9703147 150.565932,17.7284631 149.893381,18.9358557 L149.893381,19.4195968 C149.786984,19.4736942 149.680587,19.5270076 149.573414,19.5811051 C149.520604,19.7426135 149.467794,19.9033378 149.414207,20.0648462 L149.254224,20.0648462 L149.254224,20.5485872 L149.094241,20.5485872 C149.041431,20.7100956 148.987844,20.8716039 148.935034,21.0323282 C148.827861,21.0864257 148.721464,21.1397391 148.615068,21.1938366 C148.508671,21.5160693 148.402275,21.839086 148.295878,22.1613187 C148.189481,22.2154161 148.082308,22.2687296 147.975911,22.322827 L147.975911,22.8065681 C147.869515,22.8606655 147.763118,22.913979 147.656722,22.9680764 C147.550325,23.2903091 147.443928,23.6133258 147.336755,23.9355585 L147.177548,23.9355585 C147.071152,24.2585752 146.963979,24.5808079 146.857582,24.9038246 L146.698375,24.9038246 L146.698375,25.3867817 L146.538392,25.3867817 L146.538392,25.7097984 L146.378409,25.7097984 L146.378409,26.3550478 L146.218425,26.3550478 L146.218425,27.4840382 C145.902342,28.5793158 146.007185,29.0215037 146.059219,30.2257602 C146.340354,30.4703748 146.319386,30.7847672 146.538392,31.0325179 C146.644789,31.0858313 146.751185,31.1399288 146.857582,31.1932422 C147.017565,31.4088481 147.177548,31.6236699 147.336755,31.8384916 L147.816705,31.8384916 L147.816705,32 C149.193648,31.9858876 149.779994,31.5868209 150.69252,31.1932422 L151.170917,31.1932422 L151.170917,31.0325179 C151.757263,30.924323 152.342833,30.8169121 152.929179,30.7102852 L152.929179,30.5479928 L153.248369,30.5479928 C153.301956,30.4405819 153.354766,30.3331711 153.408352,30.2257602 L153.727542,30.2257602 C153.781129,30.1183493 153.833939,30.0109384 153.887526,29.9035275 L154.206715,29.9035275 C154.260302,29.7953325 154.313112,29.6879217 154.366699,29.5805108 L154.685889,29.5805108 C154.793062,29.4197864 154.899458,29.2582781 155.005855,29.0967697 L155.325045,29.0967697 C155.697821,28.6671261 156.070598,28.2366985 156.443374,27.8062709 C156.603358,27.69886 156.763341,27.5914491 156.922548,27.4840382 L156.922548,27.1618055 C157.028944,27.1077081 157.136117,27.0536106 157.242514,27.0002972 C157.295324,26.8387888 157.348911,26.6772805 157.401721,26.5165561 L157.561704,26.5165561 L157.561704,26.1935394 C157.668101,26.139442 157.774497,26.0861285 157.88167,26.0328151 C158.254447,25.1186464 158.627223,24.2044778 159,23.2903091 L158.840017,23.2903091 Z" id="Fill-16"></path>
        </g>
    </g>
</svg>